<svg width="303" height="63" viewBox="0 0 303 63" fill="none" xmlns="http://www.w3.org/2000/svg">
<path d="M29.5979 5.8541C30.1966 4.01148 32.8034 4.01148 33.4021 5.8541L38.1232 20.384C38.3909 21.208 39.1588 21.766 40.0253 21.766H55.3029C57.2404 21.766 58.0459 24.2452 56.4785 25.384L44.1186 34.364C43.4176 34.8733 43.1243 35.776 43.3921 36.6L48.1131 51.1299C48.7118 52.9726 46.6029 54.5048 45.0354 53.366L32.6756 44.386C31.9746 43.8767 31.0254 43.8767 30.3244 44.386L17.9646 53.366C16.3971 54.5048 14.2882 52.9726 14.8869 51.1299L19.6079 36.6C19.8757 35.776 19.5824 34.8733 18.8814 34.364L6.52151 25.384C4.95408 24.2452 5.75964 21.766 7.69709 21.766H22.9747C23.8412 21.766 24.6091 21.208 24.8768 20.384L29.5979 5.8541Z" fill="#473BF0"/>
<path d="M89.5979 5.8541C90.1966 4.01148 92.8034 4.01148 93.4021 5.8541L98.1232 20.384C98.3909 21.208 99.1588 21.766 100.025 21.766H115.303C117.24 21.766 118.046 24.2452 116.478 25.384L104.119 34.364C103.418 34.8733 103.124 35.776 103.392 36.6L108.113 51.1299C108.712 52.9726 106.603 54.5048 105.035 53.366L92.6756 44.386C91.9746 43.8767 91.0254 43.8767 90.3244 44.386L77.9646 53.366C76.3971 54.5048 74.2882 52.9726 74.8869 51.1299L79.6079 36.6C79.8757 35.776 79.5824 34.8733 78.8814 34.364L66.5215 25.384C64.9541 24.2452 65.7596 21.766 67.6971 21.766H82.9747C83.8412 21.766 84.6091 21.208 84.8768 20.384L89.5979 5.8541Z" fill="#473BF0"/>
<path d="M149.598 5.8541C150.197 4.01148 152.803 4.01148 153.402 5.8541L158.123 20.384C158.391 21.208 159.159 21.766 160.025 21.766H175.303C177.24 21.766 178.046 24.2452 176.478 25.384L164.119 34.364C163.418 34.8733 163.124 35.776 163.392 36.6L168.113 51.1299C168.712 52.9726 166.603 54.5048 165.035 53.366L152.676 44.386C151.975 43.8767 151.025 43.8767 150.324 44.386L137.965 53.366C136.397 54.5048 134.288 52.9726 134.887 51.1299L139.608 36.6C139.876 35.776 139.582 34.8733 138.881 34.364L126.522 25.384C124.954 24.2452 125.76 21.766 127.697 21.766H142.975C143.841 21.766 144.609 21.208 144.877 20.384L149.598 5.8541Z" fill="#473BF0"/>
<path d="M209.598 5.8541C210.197 4.01148 212.803 4.01148 213.402 5.8541L218.123 20.384C218.391 21.208 219.159 21.766 220.025 21.766H235.303C237.24 21.766 238.046 24.2452 236.478 25.384L224.119 34.364C223.418 34.8733 223.124 35.776 223.392 36.6L228.113 51.1299C228.712 52.9726 226.603 54.5048 225.035 53.366L212.676 44.386C211.975 43.8767 211.025 43.8767 210.324 44.386L197.965 53.366C196.397 54.5048 194.288 52.9726 194.887 51.1299L199.608 36.6C199.876 35.776 199.582 34.8733 198.881 34.364L186.522 25.384C184.954 24.2452 185.76 21.766 187.697 21.766H202.975C203.841 21.766 204.609 21.208 204.877 20.384L209.598 5.8541Z" fill="#473BF0"/>
<path d="M269.598 5.8541C270.197 4.01148 272.803 4.01148 273.402 5.8541L278.123 20.384C278.391 21.208 279.159 21.766 280.025 21.766H295.303C297.24 21.766 298.046 24.2452 296.478 25.384L284.119 34.364C283.418 34.8733 283.124 35.776 283.392 36.6L288.113 51.1299C288.712 52.9726 286.603 54.5048 285.035 53.366L272.676 44.386C271.975 43.8767 271.025 43.8767 270.324 44.386L257.965 53.366C256.397 54.5048 254.288 52.9726 254.887 51.1299L259.608 36.6C259.876 35.776 259.582 34.8733 258.881 34.364L246.522 25.384C244.954 24.2452 245.76 21.766 247.697 21.766H262.975C263.841 21.766 264.609 21.208 264.877 20.384L269.598 5.8541Z" fill="#473BF0"/>
</svg>
